<?xml version="1.0" encoding="utf-8"?>
<!-- Generator: Adobe Illustrator 23.0.0, SVG Export Plug-In . SVG Version: 6.00 Build 0)  -->
<svg version="1.1" id="Layer_1" xmlns="http://www.w3.org/2000/svg" xmlns:xlink="http://www.w3.org/1999/xlink" x="0px" y="0px"
	 viewBox="0 0 512 512" style="enable-background:new 0 0 512 512;" xml:space="preserve">
<style type="text/css">
	.st0{fill:#939393;}
</style>
<g>
	<g>
		<g>
			<path class="st0" d="M426.7,106.7c-47.1,0-85.3,38.3-85.3,85.3c0,31.8,36.6,88.9,59.6,121.5c-1.4,1-2.6,2.3-3.4,4
				c-2.3,5.1-0.3,11,4.4,13.7c-4.7,2.9-6.4,8.9-3.9,13.9c1.9,3.7,5.6,5.9,9.6,5.9c1.6,0,3.2-0.4,4.8-1.1l19-9.5l0,0l0,0l0,0
				c1.4-0.7,2.7-1.7,3.7-3C443,326.9,512,235.6,512,192C512,144.9,473.7,106.7,426.7,106.7z M426.7,213.3
				c-11.8,0-21.3-9.6-21.3-21.3s9.6-21.3,21.3-21.3S448,180.2,448,192S438.4,213.3,426.7,213.3z"/>
			<path class="st0" d="M111.4,483.7c22.9-32.7,59.3-89.4,59.3-121.1c0-47.1-38.3-85.3-85.3-85.3C38.3,277.3,0,315.6,0,362.7
				c0,43.6,69,134.9,76.9,145.2c2,2.6,5.1,4.2,8.5,4.2c1.7,0,3.3-0.4,4.8-1.1l0,0l19.1-9.5c5.3-2.6,7.4-9,4.8-14.3
				C113.3,485.7,112.4,484.6,111.4,483.7z M85.3,384c-11.8,0-21.3-9.6-21.3-21.3s9.6-21.3,21.3-21.3s21.3,9.6,21.3,21.3
				S97.1,384,85.3,384z"/>
			<path class="st0" d="M234.4,414.9l-33.7,16.8c-5.3,2.6-7.4,9-4.8,14.3c1.9,3.7,5.6,5.9,9.6,5.9c1.6,0,3.2-0.4,4.8-1.1l33.7-16.8
				c5.3-2.6,7.4-9,4.8-14.3C246.1,414.4,239.6,412.3,234.4,414.9z"/>
			<path class="st0" d="M369.1,347.5l-33.7,16.8c-5.3,2.6-7.4,9-4.8,14.3c1.9,3.7,5.6,5.9,9.6,5.9c1.6,0,3.2-0.4,4.8-1.1l33.7-16.8
				c5.3-2.6,7.4-9,4.8-14.3C380.8,347,374.4,344.9,369.1,347.5z"/>
			<path class="st0" d="M167,448.6l-33.7,16.8c-5.3,2.6-7.4,9-4.8,14.3c1.9,3.7,5.6,5.9,9.6,5.9c1.6,0,3.2-0.4,4.8-1.1l33.7-16.8
				c5.3-2.6,7.4-9,4.8-14.3C178.7,448.1,172.3,446,167,448.6z"/>
			<path class="st0" d="M301.8,381.2L268.1,398c-5.3,2.6-7.4,9-4.8,14.3c1.9,3.7,5.6,5.9,9.6,5.9c1.6,0,3.2-0.4,4.8-1.1l33.7-16.8
				c5.3-2.6,7.4-9,4.8-14.3C313.4,380.7,307,378.6,301.8,381.2z"/>
			<path class="st0" d="M368.1,314.7c4.1,0,7.9-2.3,9.7-6.2c2.4-5.4,0.1-11.7-5.3-14.1l-39.2-17.8c-5.4-2.5-11.7-0.1-14.1,5.3
				c-2.4,5.4-0.1,11.7,5.3,14.1l39.2,17.8C365.1,314.4,366.6,314.7,368.1,314.7z"/>
			<path class="st0" d="M240.9,246.2c-2.4,5.4-0.1,11.7,5.3,14.1l39.2,17.8c1.4,0.7,2.9,1,4.4,1c4.1,0,7.9-2.3,9.7-6.2
				c2.4-5.4,0.1-11.7-5.3-14.1L255,240.9C249.6,238.5,243.3,240.9,240.9,246.2z"/>
			<path class="st0" d="M211.4,243.5c4.1,0,7.9-2.3,9.7-6.2c2.4-5.4,0.1-11.7-5.3-14.1l-7.4-3.3c20.2-27.6,68.9-97.8,68.9-134.4
				C277.3,38.3,239.1,0,192,0s-85.3,38.3-85.3,85.3c0,43.6,69,134.9,76.9,145.2c1.1,1.4,2.4,2.4,4,3.1c0.1,0,0,0.1,0.1,0.1l19.4,8.8
				C208.4,243.2,209.9,243.5,211.4,243.5z M170.7,85.3c0-11.8,9.6-21.3,21.3-21.3s21.3,9.6,21.3,21.3s-9.6,21.3-21.3,21.3
				S170.7,97.1,170.7,85.3z"/>
		</g>
	</g>
</g>
</svg>
